<svg xmlns="http://www.w3.org/2000/svg" width="56.348" height="45.739" viewBox="0 0 56.348 45.739"><defs><style>.a,.b{fill:none;stroke:#e8e8e8;stroke-width:0.6px;}.a{stroke-linecap:round;stroke-linejoin:round;}.b{stroke-miterlimit:10;}</style></defs><g transform="translate(0.3 0.3)"><line class="a" x1="8.907" transform="translate(19.252 41.88)"/><line class="a" x1="5.129" transform="translate(29.811 41.88)"/><line class="a" x1="11.53" transform="translate(21.39 43.282)"/><g transform="translate(0 38.578)"><line class="a" x1="7.795" transform="translate(1.261 1.212)"/><line class="a" x1="11.153" transform="translate(13.583 2.051)"/><line class="a" x1="3.708" transform="translate(0 0)"/><line class="a" x1="1.236" transform="translate(7.202 2.424)"/><line class="a" x1="1.236" transform="translate(16.444 3.068)"/><line class="a" x1="9.157" transform="translate(11.638 0.801)"/></g><g transform="translate(31.012 38.578)"><line class="a" x2="7.795" transform="translate(15.681 1.212)"/><line class="a" x2="11.153" transform="translate(0 2.051)"/><line class="a" x2="3.708" transform="translate(21.028 0)"/><line class="a" x2="1.236" transform="translate(16.299 2.424)"/><line class="a" x2="1.236" transform="translate(7.056 3.068)"/><line class="a" x2="9.157" transform="translate(3.942 0.801)"/></g><g transform="translate(9.12)"><line class="b" y1="0.002" x2="0.002" transform="translate(13.946 9.213)"/><line class="b" y1="0.002" x2="0.002" transform="translate(24.66 9.211)"/><path class="a" d="M262.086,760a.6.6,0,1,0-.6-.6A.6.6,0,0,0,262.086,760Z" transform="translate(-242.783 -755.594)"/><path class="a" d="M262.71,756.343a.4.4,0,1,0-.395-.4A.4.4,0,0,0,262.71,756.343Z" transform="translate(-243.407 -753.129)"/><line class="a" y1="2.323" transform="translate(19.303)"/><line class="a" y2="2.012" transform="translate(12.504 21.205)"/><line class="a" y1="2.012" transform="translate(26.111 21.205)"/><path class="a" d="M247.327,764.355l0,0L241.967,769l1.458.76,2.068,1.077,1.828.954,1.835-.956,2-1.042,1.522-.792-5.345-4.639" transform="translate(-228.019 -759.786)"/><path class="a" d="M232.016,790.61a8.17,8.17,0,0,1-.117-1.381,8.021,8.021,0,0,1,2.452-5.8" transform="translate(-220.405 -774.217)"/><path class="a" d="M232.748,814.67c-.028-.1-.051-.2-.072-.3" transform="translate(-220.992 -797.611)"/><path class="a" d="M233.488,817.367c-.033-.1-.065-.189-.093-.287" transform="translate(-221.536 -799.663)"/><path class="a" d="M293.768,818.259c-.038.105-.077.21-.117.313" transform="translate(-267.105 -800.555)"/><path class="a" d="M285.923,783.413a8.009,8.009,0,0,1,2.459,5.8,8.176,8.176,0,0,1-.117,1.381" transform="translate(-261.261 -774.202)"/><path class="a" d="M236.041,823.226v2.29h13.607v-2.29" transform="translate(-223.537 -804.311)"/><path class="a" d="M247.771,810.755c-.021.124-.045.248-.073.369-.014.063-.028.128-.044.192-.037.157-.082.311-.131.463-.028.1-.058.192-.093.287s-.075.21-.117.313c-.035.086-.07.173-.107.259-.03.065-.061.131-.093.2s-.056.122-.086.182c-.044.089-.091.173-.138.259H233.264c-.049-.089-.1-.18-.143-.271-.066-.129-.129-.262-.187-.4-.077-.177-.15-.36-.215-.544-.033-.1-.063-.189-.093-.287a.315.315,0,0,1-.016-.051c-.03-.1-.058-.2-.087-.3v0c-.026-.1-.051-.2-.072-.3-.028-.119-.051-.241-.073-.362a43.585,43.585,0,0,1,15.393,0Z" transform="translate(-220.767 -794.362)"/><path class="a" d="M251.958,853.7v-17.32h-11.7V853.7" transform="translate(-226.728 -814.261)"/><path class="a" d="M254.3,846.675v-5.546h-9.473v5.546" transform="translate(-230.18 -817.85)"/><path class="a" d="M254.3,863.5V852.875c0-1.524-2.094-2.431-4.735-3.548-2.5,1-4.737,2.024-4.737,3.548V863.5" transform="translate(-230.18 -824.05)"/><line class="a" y1="5.343" x2="3.861" transform="translate(15.442 4.565)"/><line class="a" y1="6.486" x2="1.828" transform="translate(17.475 4.565)"/><path class="a" d="M263.955,764.351l0,0,0,0,3.81,5.406" transform="translate(-244.647 -759.786)"/><path class="a" d="M263.955,764.351v0h0l1.828,6.479v0" transform="translate(-244.647 -759.786)"/><line class="a" y1="7.435" x2="0.005" transform="translate(19.303 4.569)"/><path class="a" d="M189.63,840.879l-1.311.129-.806.077-1.213.119-.82.08v13.3h4.151" transform="translate(-185.299 -817.662)"/><line class="a" y1="13.701" transform="translate(10.429 23.218)"/><path class="a" d="M203.131,840.879h-.622v13.7h.778" transform="translate(-198.178 -817.662)"/><path class="a" d="M223.739,854.58h3v-13.7h-2.489" transform="translate(-214.234 -817.662)"/><path class="a" d="M210.1,876.828V874.6h-4.4v2.225" transform="translate(-200.593 -843.166)"/><path class="a" d="M188.634,851.838v-2.7c.432-.028.865-.061,1.3-.089s.865-.061,1.3-.089v2.73" transform="translate(-187.685 -823.775)"/><path class="a" d="M210.1,882.564h-4.4v-3.256c0-.612.97-.977,2.2-1.426,1.161.4,2.2.813,2.2,1.426Z" transform="translate(-200.593 -845.646)"/><path class="a" d="M210.9,848.81V846.24h-3.63v2.571" transform="translate(-201.782 -821.716)"/><path class="a" d="M210.9,852.364v3.256h-3.63v-3.256c0-.612.8-.977,1.814-1.426C210.047,851.338,210.9,851.751,210.9,852.364Z" transform="translate(-201.783 -825.269)"/><path class="a" d="M191.228,855.478v3.644q-.649.021-1.3.045l-1.3.044v-3.588a1.287,1.287,0,0,1,.376-.874,6.66,6.66,0,0,1,.921-.781,4.5,4.5,0,0,1,.9.647A1.2,1.2,0,0,1,191.228,855.478Z" transform="translate(-187.685 -827.56)"/><path class="a" d="M191.228,882.735v1.112l-1.3.028c-.432.007-.865.016-1.3.026v-2.19a.694.694,0,0,1,.376-.535,6.911,6.911,0,0,1,.921-.474,5,5,0,0,1,.9.395c.238.147.393.316.393.526Z" transform="translate(-187.685 -847.778)"/><path class="a" d="M185.339,827.369a.6.6,0,1,0,.6.6A.6.6,0,0,0,185.339,827.369Z" transform="translate(-184.741 -807.444)"/><path class="a" d="M185.963,824.91a.4.4,0,1,0-.4-.4A.4.4,0,0,0,185.963,824.91Z" transform="translate(-185.365 -804.986)"/><line class="a" y1="2.323" transform="translate(0.598 16.711)"/><path class="a" d="M185.479,834.921v-2.3h.816v2.3" transform="translate(-185.299 -811.418)"/><path class="a" d="M193.641,826.621a.6.6,0,1,0,.6.6A.6.6,0,0,0,193.641,826.621Z" transform="translate(-191.021 -806.878)"/><path class="a" d="M194.265,824.162a.4.4,0,1,0-.395-.4A.4.4,0,0,0,194.265,824.162Z" transform="translate(-191.645 -804.42)"/><line class="a" y1="3.361" transform="translate(2.62 15.491)"/><path class="a" d="M193.783,834.173v-2.3h.813v2.3" transform="translate(-191.579 -810.852)"/><path class="a" d="M213.989,805.7a.472.472,0,1,0-.472-.472A.474.474,0,0,0,213.989,805.7Z" transform="translate(-206.503 -790.345)"/><path class="a" d="M211.053,810.245l-1.737-1.508-1.795,1.557-.18.157" transform="translate(-201.833 -793.354)"/><path class="a" d="M207.284,815.2l1.989,1.038,1.989-1.038-.227-.2" transform="translate(-201.79 -798.097)"/><path class="a" d="M203.589,815.987a2.834,2.834,0,0,1-.044-.512,2.988,2.988,0,0,1,.911-2.155.062.062,0,0,0,.014-.012,2.294,2.294,0,0,1,.18-.157,2.858,2.858,0,0,1,3.532-.049.3.3,0,0,1,.026.021,2.605,2.605,0,0,1,.227.2,2.973,2.973,0,0,1,.914,2.155,2.854,2.854,0,0,1-.044.512" transform="translate(-198.962 -796.212)"/><path class="a" d="M203.824,827.227a.938.938,0,0,1-.03-.135" transform="translate(-199.15 -807.234)"/><path class="a" d="M227.01,827.091a.971.971,0,0,1-.03.135" transform="translate(-216.685 -807.234)"/><path class="a" d="M209.442,825.965c0,.028-.01.056-.016.082a1.29,1.29,0,0,1-.03.135c-.012.056-.028.11-.044.164l-.035.105a3.106,3.106,0,0,1-.2.451h-5.06s0,0,0,0a3.02,3.02,0,0,1-.2-.446l-.035-.105c-.016-.054-.033-.107-.044-.164a1.294,1.294,0,0,1-.03-.135.825.825,0,0,1-.016-.082,16.161,16.161,0,0,1,5.715,0Z" transform="translate(-199.099 -806.19)"/><path class="a" d="M210.122,832.057v-1.5H205.06v1.5" transform="translate(-200.107 -809.859)"/><line class="a" x2="0.645" transform="translate(8.159 23.218)"/><line class="a" x2="0.58" transform="translate(6.163 23.218)"/><path class="a" d="M212.405,834.331h1.416v-1.239a1.242,1.242,0,0,0-.708-.872,1.256,1.256,0,0,0-.708.872Z" transform="translate(-205.662 -811.114)"/><path class="a" d="M205.06,835.5h1.211v-1.019a1.021,1.021,0,0,0-.605-.715,1.043,1.043,0,0,0-.605.715Z" transform="translate(-200.107 -812.28)"/><path class="a" d="M220.862,835.5h1.211v-1.019a1.022,1.022,0,0,0-.605-.715,1.044,1.044,0,0,0-.605.715Z" transform="translate(-212.058 -812.28)"/><path class="a" d="M202.116,830.83h6.7" transform="translate(-197.881 -810.062)"/><line class="a" y2="0.18" transform="translate(7.381 33.541)"/><line class="a" y2="0.206" transform="translate(7.306 35.142)"/><path class="a" d="M325.41,840.879l1.309.129.809.077,1.213.119.818.08v13.3H325.41" transform="translate(-291.123 -817.662)"/><line class="a" y1="13.701" transform="translate(28.187 23.218)"/><path class="a" d="M322.371,840.879h.624v13.7h-.778" transform="translate(-288.708 -817.662)"/><path class="a" d="M294.866,854.58h-3v-13.7h2.489" transform="translate(-265.757 -817.662)"/><path class="a" d="M304.17,876.828V874.6h4.4v2.225" transform="translate(-275.061 -843.166)"/><path class="a" d="M331.225,851.838v-2.7c-.432-.028-.865-.061-1.3-.089s-.865-.061-1.3-.089v2.73" transform="translate(-293.559 -823.775)"/><path class="a" d="M304.17,882.564h4.4v-3.256c0-.612-.972-.977-2.2-1.426-1.159.4-2.2.813-2.2,1.426Z" transform="translate(-275.06 -845.646)"/><path class="a" d="M305.752,848.81V846.24h3.63v2.571" transform="translate(-276.257 -821.716)"/><path class="a" d="M305.752,852.364v3.256h3.63v-3.256c0-.612-.8-.977-1.816-1.426C306.608,851.338,305.752,851.751,305.752,852.364Z" transform="translate(-276.257 -825.269)"/><path class="a" d="M328.631,855.478v3.644q.649.021,1.3.045l1.3.044v-3.588a1.276,1.276,0,0,0-.376-.874,6.534,6.534,0,0,0-.921-.781,4.5,4.5,0,0,0-.9.647A1.2,1.2,0,0,0,328.631,855.478Z" transform="translate(-293.559 -827.56)"/><path class="a" d="M328.631,883.848l1.3.028c.432.007.865.016,1.3.026v-2.19a.688.688,0,0,0-.376-.535,6.779,6.779,0,0,0-.921-.474,5,5,0,0,0-.9.395c-.238.147-.393.316-.393.526v2.225Z" transform="translate(-293.559 -847.778)"/><path class="a" d="M338.857,827.369a.6.6,0,1,1-.6.6A.6.6,0,0,1,338.857,827.369Z" transform="translate(-300.84 -807.444)"/><path class="a" d="M339.488,824.91a.4.4,0,1,1,.4-.4A.4.4,0,0,1,339.488,824.91Z" transform="translate(-301.471 -804.986)"/><line class="a" y1="2.323" transform="translate(38.017 16.711)"/><path class="a" d="M339.906,834.921v-2.3h-.813v2.3" transform="translate(-301.471 -811.418)"/><path class="a" d="M330.562,826.621a.6.6,0,1,1-.6.6A.6.6,0,0,1,330.562,826.621Z" transform="translate(-294.567 -806.878)"/><path class="a" d="M331.186,824.162a.4.4,0,1,1,.4-.4A.4.4,0,0,1,331.186,824.162Z" transform="translate(-295.191 -804.42)"/><line class="a" y1="3.361" transform="translate(35.995 15.491)"/><path class="a" d="M331.6,834.173v-2.3h-.816v2.3" transform="translate(-295.191 -810.852)"/><path class="a" d="M311,805.7a.472.472,0,1,1,.475-.472A.472.472,0,0,1,311,805.7Z" transform="translate(-279.869 -790.345)"/><path class="a" d="M305.35,810.243l1.734-1.505,1.795,1.557.18.157" transform="translate(-275.952 -793.354)"/><path class="a" d="M308.29,815.14l-1.989,1.038-1.987-1.038.25-.217" transform="translate(-275.169 -798.031)"/><path class="a" d="M306.227,816.354a2.669,2.669,0,0,0,.087-.367,2.826,2.826,0,0,0,.044-.512,2.988,2.988,0,0,0-.911-2.155.062.062,0,0,1-.014-.012,1.914,1.914,0,0,0-.18-.157,2.859,2.859,0,0,0-3.529-.051l0,0a2.427,2.427,0,0,0-.25.217,2.963,2.963,0,0,0-.916,2.155,2.853,2.853,0,0,0,.044.512" transform="translate(-272.326 -796.212)"/><path class="a" d="M300.958,827.781c.021.079.044.159.072.236" transform="translate(-272.631 -807.756)"/><path class="a" d="M300.8,827.091a.947.947,0,0,0,.03.135" transform="translate(-272.515 -807.234)"/><path class="a" d="M300.737,825.965c0,.028.01.056.017.082.009.046.019.091.03.135l.007.033c.021.08.047.159.072.236a3.366,3.366,0,0,0,.2.451h5.06s0,0,0,0c.026-.049.051-.1.075-.147s.056-.122.082-.182.04-.1.056-.154a.79.79,0,0,0,.026-.082,2.713,2.713,0,0,0,.089-.367h0a16.161,16.161,0,0,0-5.715,0Z" transform="translate(-272.464 -806.19)"/><path class="a" d="M302.08,832.057v-1.5h5.062v1.5" transform="translate(-273.48 -809.859)"/><line class="a" x1="0.645" transform="translate(29.811 23.218)"/><line class="a" x1="0.58" transform="translate(31.872 23.218)"/><path class="a" d="M311.109,834.331h-1.416v-1.239a1.242,1.242,0,0,1,.708-.872,1.256,1.256,0,0,1,.708.872Z" transform="translate(-279.237 -811.114)"/><path class="a" d="M319.093,835.5h-1.211v-1.019a1.021,1.021,0,0,1,.605-.715,1.038,1.038,0,0,1,.605.715Z" transform="translate(-285.43 -812.28)"/><path class="a" d="M303.291,835.5H302.08v-1.019a.614.614,0,1,1,1.211,0Z" transform="translate(-273.48 -812.28)"/><path class="a" d="M305,830.83h-6.7" transform="translate(-270.622 -810.062)"/><line class="a" y2="0.18" transform="translate(31.237 33.541)"/><line class="a" y2="0.206" transform="translate(31.309 35.142)"/></g><g transform="translate(20.734 11.17)"><line class="a" y2="1.506" transform="translate(1.724 0)"/><line class="a" y2="1.506" transform="translate(3.301 1.295)"/><line class="a" y2="1.506" transform="translate(1.056 2.048)"/><line class="a" y2="1.506" transform="translate(0 3.363)"/><line class="a" y2="1.506" transform="translate(5.436 2.048)"/><line class="a" y2="1.506" transform="translate(6.831 2.61)"/><line class="a" y2="1.506" transform="translate(2.169 3.035)"/><line class="a" y2="1.506" transform="translate(4.265 3.035)"/><line class="a" y2="1.506" transform="translate(11.862 0)"/><line class="a" y2="1.506" transform="translate(10.285 1.295)"/><line class="a" y2="1.506" transform="translate(12.53 2.048)"/><line class="a" y2="1.506" transform="translate(13.586 3.363)"/><line class="a" y2="1.506" transform="translate(8.15 2.048)"/><line class="a" y2="1.506" transform="translate(11.417 3.035)"/><line class="a" y2="1.506" transform="translate(9.32 3.035)"/></g><g transform="translate(19.613 44.918)"><line class="a" y1="0.088" x2="5.96" transform="translate(8.751)"/><line class="a" y1="0.025" x2="1.679" transform="translate(5.203 0.115)"/><line class="a" y1="0.05" x2="3.406" transform="translate(0 0.166)"/></g></g></svg>